<?xml version="1.0" encoding="UTF-8" standalone="no"?>
<svg
   xmlns:dc="http://purl.org/dc/elements/1.1/"
   xmlns:cc="http://creativecommons.org/ns#"
   xmlns:rdf="http://www.w3.org/1999/02/22-rdf-syntax-ns#"
   xmlns:svg="http://www.w3.org/2000/svg"
   xmlns="http://www.w3.org/2000/svg"
   viewBox="0 0 378.66666 378.66666"
   height="378.66666"
   width="378.66666"
   xml:space="preserve"
   id="svg2"
   version="1.1"><metadata
     id="metadata8"><rdf:RDF><cc:Work
         rdf:about=""><dc:format>image/svg+xml</dc:format><dc:type
           rdf:resource="http://purl.org/dc/dcmitype/StillImage" /></cc:Work></rdf:RDF></metadata><defs
     id="defs6" /><g
     transform="matrix(1.3333333,0,0,-1.3333333,0,378.66667)"
     id="g10"><g
       transform="scale(0.1)"
       id="g12"><path
         id="path14"
         style="fill:#f7cb1e;fill-opacity:1;fill-rule:evenodd;stroke:none"
         d="m 1415.25,1432.15 c 0,-21.61 37.37,-26.51 37.37,2.08 0,20.47 -37.37,23.37 -37.37,-2.08" /><path
         id="path16"
         style="fill:#f7cb1e;fill-opacity:1;fill-rule:evenodd;stroke:none"
         d="m 1739.13,1839.08 c 9.26,0 18.68,8.4 18.68,16.61 0,15.19 -16.92,23.56 -28.26,13.77 -12.16,-10.48 -4.29,-30.38 9.58,-30.38" /><path
         id="path18"
         style="fill:#f7cb1e;fill-opacity:1;fill-rule:evenodd;stroke:none"
         d="m 503.813,1401.01 c 0,-18.32 33.218,-24.88 33.218,0 0,23.51 -33.218,19.24 -33.218,0" /><path
         id="path20"
         style="fill:#f7cb1e;fill-opacity:1;fill-rule:evenodd;stroke:none"
         d="m 1489.99,1602.4 c 0,-7.24 9.37,-16.61 16.61,-16.61 12.01,0 21.77,16.94 11.05,27.66 -10.72,10.72 -27.66,0.96 -27.66,-11.05" /><path
         id="path22"
         style="fill:#f7cb1e;fill-opacity:1;fill-rule:evenodd;stroke:none"
         d="m 505.891,1334.57 c 0,-19.78 29.066,-20.55 29.066,0 0,20.67 -29.066,17.37 -29.066,0" /><path
         id="path24"
         style="fill:#f7cb1e;fill-opacity:1;fill-rule:evenodd;stroke:none"
         d="m 1674.77,1677.14 c 0,-14.12 29.06,-20.39 29.06,4.15 0,14.51 -29.06,19.97 -29.06,-4.15" /><path
         id="path26"
         style="fill:#f7cb1e;fill-opacity:1;fill-rule:evenodd;stroke:none"
         d="m 1489.99,1695.83 c 0,-16.29 29.06,-22.31 29.06,0 0,22.46 -29.06,16.05 -29.06,0" /><path
         id="path28"
         style="fill:#f7cb1e;fill-opacity:1;fill-rule:evenodd;stroke:none"
         d="m 507.965,1274.37 v -14.54 c 9.035,-7.83 8.305,-7.53 22.84,-4.15 8.175,17.03 -0.895,33.38 -22.84,18.69" /><path
         id="path30"
         style="fill:#f7cb1e;fill-opacity:1;fill-rule:evenodd;stroke:none"
         d="m 1463,1787.18 c 0,-12.85 12.63,-12.46 20.76,-12.46 16.62,19.17 -3.31,26.59 -7.71,26.19 -7.12,-0.62 -13.05,-6.96 -13.05,-13.73" /><path
         id="path32"
         style="fill:#f7cb1e;fill-opacity:1;fill-rule:evenodd;stroke:none"
         d="m 1693.45,1573.33 16.61,-2.08 c 7.28,8.41 6.23,5.24 6.23,18.69 -8.7,7.54 -5.35,6.23 -20.76,6.23 -6.47,-9.66 -7.77,-10.97 -2.08,-22.84" /><path
         id="path34"
         style="fill:#f7cb1e;fill-opacity:1;fill-rule:evenodd;stroke:none"
         d="m 507.965,1199.63 c 0,-8.44 6.742,-18.4 24.914,-6.23 v 12.46 c -4.277,2.86 -5.387,6.22 -10.379,6.22 -8.387,0 -14.535,-4.52 -14.535,-12.45" /><path
         id="path36"
         style="fill:#f7cb1e;fill-opacity:1;fill-rule:evenodd;stroke:none"
         d="m 1413.17,1874.38 v -12.46 c 12.5,-8.37 10.59,-8.21 22.84,0 v 12.46 c -12.43,8.32 -9.62,9.19 -22.84,0" /><path
         id="path38"
         style="fill:#f7cb1e;fill-opacity:1;fill-rule:evenodd;stroke:none"
         d="m 1730.82,1502.75 2.08,-16.62 c 16.47,-3.83 10.19,-2.92 20.76,4.16 v 12.46 c -12.5,8.36 -10.59,8.2 -22.84,0" /><path
         id="path40"
         style="fill:#e5212b;fill-opacity:1;fill-rule:evenodd;stroke:none"
         d="m 2085.85,1452.91 c 0,-42.75 63.46,-40.23 63.41,-0.01 -0.05,40.86 -63.41,42.73 -63.41,0.01" /><path
         id="path42"
         style="fill:#e5212b;fill-opacity:1;fill-rule:evenodd;stroke:none"
         d="m 2233.25,1702.05 c 0,-36.69 53.98,-35.08 53.98,-2.07 0,37.08 -53.98,34 -53.98,2.07" /><path
         id="path44"
         style="fill:#e4212b;fill-opacity:1;fill-rule:evenodd;stroke:none"
         d="m 1085.14,1884.76 c 0,-42.32 66.43,-45.06 66.43,0 0,45.04 -66.43,42.25 -66.43,0" /><path
         id="path46"
         style="fill:#e4212b;fill-opacity:1;fill-rule:evenodd;stroke:none"
         d="m 2009.03,1432.15 c 0,-44.06 66.43,-41.81 66.43,0 0,43.31 -66.43,44.58 -66.43,0" /><path
         id="path48"
         style="fill:#e4212b;fill-opacity:1;fill-rule:evenodd;stroke:none"
         d="m 1045.69,1820.39 c 45.39,0 42.2,64.37 2.08,64.37 -30.81,0 -40.13,-35.81 -24.44,-53.51 3.51,-3.96 16.22,-10.86 22.36,-10.86" /><path
         id="path50"
         style="fill:#e4212b;fill-opacity:1;fill-rule:evenodd;stroke:none"
         d="m 960.57,1803.79 c 0,-28.02 30.922,-42.49 51.43,-24.44 30.23,26.6 -11.03,71.69 -41.473,45.62 -3.824,-3.27 -9.957,-14.58 -9.957,-21.18" /><path
         id="path52"
         style="fill:#e4212b;fill-opacity:1;fill-rule:evenodd;stroke:none"
         d="m 2150.21,1494.44 c 0,-37.68 60.2,-45.82 60.2,4.15 0,32.59 -60.2,38.9 -60.2,-4.15" /><path
         id="path54"
         style="fill:#e4212b;fill-opacity:1;fill-rule:evenodd;stroke:none"
         d="m 2197.96,1552.57 c 0,-33.45 58.13,-46.01 58.13,4.16 0,34.16 -58.13,33.1 -58.13,-4.16" /><path
         id="path56"
         style="fill:#e4212b;fill-opacity:1;fill-rule:evenodd;stroke:none"
         d="m 925.273,1741.5 c 0,-49.04 58.133,-38.16 58.133,-4.15 0,37.9 -58.133,38.08 -58.133,4.15" /><path
         id="path58"
         style="fill:#e4212b;fill-opacity:1;fill-rule:evenodd;stroke:none"
         d="m 908.664,1664.68 c 0,-34.53 56.055,-43.07 56.055,2.08 0,34.92 -56.055,30.99 -56.055,-2.08" /><path
         id="path60"
         style="fill:#e4212b;fill-opacity:1;fill-rule:evenodd;stroke:none"
         d="m 2227.02,1623.16 c 0,-35.71 56.06,-40.94 56.06,2.07 0,23.54 -32.65,33.32 -47.99,16.85 -2.67,-2.88 -8.07,-14.03 -8.07,-18.92" /><path
         id="path62"
         style="fill:#e4212b;fill-opacity:1;fill-rule:evenodd;stroke:none"
         d="m 943.961,1558.8 c 35.023,0 35.918,53.98 2.078,53.98 -16.617,0 -27.586,-11.29 -28.41,-25.14 -0.938,-15.73 14.531,-28.84 26.332,-28.84" /><path
         id="path64"
         style="fill:#e4212b;fill-opacity:1;fill-rule:evenodd;stroke:none"
         d="m 950.188,1517.27 c 0,-40.13 51.902,-32.9 51.902,-4.14 0,38.11 -51.902,31.57 -51.902,4.14" /><path
         id="path66"
         style="fill:#e4212b;fill-opacity:1;fill-rule:evenodd;stroke:none"
         d="m 2214.57,1778.87 c 0,-33.4 35.83,-30.81 44.82,-19.91 21.76,26.38 -14.79,57.16 -36.17,36.17 -2.97,-2.93 -8.65,-11.25 -8.65,-16.26" /><path
         id="path68"
         style="fill:#e4212b;fill-opacity:1;fill-rule:evenodd;stroke:none"
         d="m 354.332,1986.48 c 0,-19.37 7.609,-26.98 26.988,-26.98 21.075,0 29.535,28.78 14.985,41.97 -18.828,17.07 -41.973,0.98 -41.973,-14.99" /><path
         id="path70"
         style="fill:#e4212b;fill-opacity:1;fill-rule:evenodd;stroke:none"
         d="m 1002.09,1459.14 c 0,-31.15 47.75,-36.85 47.75,2.08 0,27.89 -47.75,28.06 -47.75,-2.08" /><path
         id="path72"
         style="fill:#e4212b;fill-opacity:1;fill-rule:evenodd;stroke:none"
         d="m 2175.12,1841.16 c 0,-31.83 47.75,-36.31 47.75,2.07 0,27.13 -47.75,28.04 -47.75,-2.07" /><path
         id="path74"
         style="fill:#e4212b;fill-opacity:1;fill-rule:evenodd;stroke:none"
         d="m 418.691,1986.48 c 0,-41.52 47.754,-28.72 47.754,-4.14 0,33.45 -47.754,31.55 -47.754,4.14" /><path
         id="path76"
         style="fill:#e4212b;fill-opacity:1;fill-rule:evenodd;stroke:none"
         d="m 418.691,1922.13 c 0,-28.01 45.676,-33.39 45.676,2.07 0,28.69 -45.676,27.55 -45.676,-2.07" /><path
         id="path78"
         style="fill:#e4212b;fill-opacity:1;fill-rule:evenodd;stroke:none"
         d="m 1068.53,1425.93 c 0,-43.23 45.68,-33.48 45.68,-4.16 0,28.32 -45.68,25.05 -45.68,4.16" /><path
         id="path80"
         style="fill:#e4212b;fill-opacity:1;fill-rule:evenodd;stroke:none"
         d="m 2119.07,1888.91 c 0,-35.84 45.67,-28.16 45.67,-4.15 0,35.8 -45.67,29.52 -45.67,4.15" /><path
         id="path82"
         style="fill:#e4212b;fill-opacity:1;fill-rule:evenodd;stroke:none"
         d="m 420.766,1866.07 c 0,-33.87 43.601,-27.66 43.601,0 0,24.89 -43.601,28.94 -43.601,0" /><path
         id="path84"
         style="fill:#e4212b;fill-opacity:1;fill-rule:evenodd;stroke:none"
         d="m 2050.55,1917.98 c 0,-19.78 15.98,-24.92 18.68,-24.92 30.48,0 34.38,43.6 0,43.6 -10.26,0 -18.68,-8.42 -18.68,-18.68" /><path
         id="path86"
         style="fill:#e4212b;fill-opacity:1;fill-rule:evenodd;stroke:none"
         d="m 1143.27,1405.16 c 0,-30.23 36.87,-29.3 42.51,-7.12 2.2,8.66 -2.23,16.86 -7.64,21.24 -13.9,11.25 -34.87,3.39 -34.87,-14.12" /><path
         id="path88"
         style="fill:#e4212b;fill-opacity:1;fill-rule:evenodd;stroke:none"
         d="m 420.766,1810.02 c 0,-23.81 41.523,-33.6 41.523,4.14 0,19.63 -41.523,24.36 -41.523,-4.14" /><path
         id="path90"
         style="fill:#e4212b;fill-opacity:1;fill-rule:evenodd;stroke:none"
         d="m 1973.73,1922.13 c 0,-19.21 12.38,-20.77 22.84,-20.77 23.02,0 25.7,39.45 -4.15,39.45 -10.26,0 -18.69,-8.42 -18.69,-18.68" /><path
         id="path92"
         style="fill:#e4212b;fill-opacity:1;fill-rule:evenodd;stroke:none"
         d="m 1222.16,1411.39 c 0,-30.28 39.45,-25.39 39.45,-4.15 0,33.05 -39.45,26.9 -39.45,4.15" /><path
         id="path94"
         style="fill:#e4212b;fill-opacity:1;fill-rule:evenodd;stroke:none"
         d="m 422.844,1756.04 c 0,-30.22 39.445,-24.53 39.445,-2.08 0,26.76 -39.445,27.34 -39.445,2.08" /><path
         id="path96"
         style="fill:#e4212b;fill-opacity:1;fill-rule:evenodd;stroke:none"
         d="m 1294.83,1440.46 c 0,-9.26 8.41,-18.69 16.61,-18.69 28.21,0 32.01,37.37 -2.08,37.37 -6.61,0 -14.53,-10.57 -14.53,-18.68" /><path
         id="path98"
         style="fill:#e4212b;fill-opacity:1;fill-rule:evenodd;stroke:none"
         d="m 1898.99,1905.52 c 0,-29.07 37.37,-32.1 37.37,-2.08 0,24.72 -37.37,19.38 -37.37,2.08" /><path
         id="path100"
         style="fill:#e4212b;fill-opacity:1;fill-rule:evenodd;stroke:none"
         d="m 422.844,1699.98 c 0,-26.32 37.371,-20.65 37.371,-4.15 0,8.59 -0.352,22.83 -18.684,22.83 -10.437,0 -18.687,-9.02 -18.687,-18.68" /><path
         id="path102"
         style="fill:#e4212b;fill-opacity:1;fill-rule:evenodd;stroke:none"
         d="m 1836.71,1861.92 c 0,-27.27 35.29,-22.42 35.29,-2.08 0,24.74 -35.29,24.94 -35.29,2.08" /><path
         id="path104"
         style="fill:#e4212b;fill-opacity:1;fill-rule:evenodd;stroke:none"
         d="m 1352.96,1490.29 c 0,-19.95 35.3,-27.1 35.3,4.15 0,17.53 -35.3,21.27 -35.3,-4.15" /><path
         id="path106"
         style="fill:#e4212b;fill-opacity:1;fill-rule:evenodd;stroke:none"
         d="m 424.922,1646 c 0,-26.98 35.293,-22.38 35.293,0 0,20.01 -35.293,24.46 -35.293,0" /><path
         id="path108"
         style="fill:#e4212b;fill-opacity:1;fill-rule:evenodd;stroke:none"
         d="m 1788.96,1803.79 c 0,-20.91 33.22,-23.16 33.22,0 0,23.69 -33.22,20.57 -33.22,0" /><path
         id="path110"
         style="fill:#e4212b;fill-opacity:1;fill-rule:evenodd;stroke:none"
         d="m 1392.41,1554.65 c 0,-20.9 33.22,-23.16 33.22,0 0,23.15 -33.22,20.9 -33.22,0" /><path
         id="path112"
         style="fill:#e4212b;fill-opacity:1;fill-rule:evenodd;stroke:none"
         d="m 424.922,1589.94 c 0,-17.16 33.215,-27.6 33.215,4.15 0,11.57 -19.867,17.39 -28.574,7.82 -1.965,-2.16 -4.641,-8.7 -4.641,-11.97" /><path
         id="path114"
         style="fill:#e4212b;fill-opacity:1;fill-rule:evenodd;stroke:none"
         d="m 426.996,1535.96 c 0,-23.35 31.141,-19.03 31.141,0 0,18.31 -31.141,21.06 -31.141,0" /><path
         id="path116"
         style="fill:#e4212b;fill-opacity:1;fill-rule:evenodd;stroke:none"
         d="m 1761.96,1735.27 c 0,-8.88 6.41,-16.61 14.54,-16.61 22.59,0 19.47,31.15 2.07,31.15 -8.88,0 -16.61,-6.4 -16.61,-14.54" /><path
         id="path118"
         style="fill:#e4212b;fill-opacity:1;fill-rule:evenodd;stroke:none"
         d="m 1427.7,1612.78 c 27.98,0 9.82,47.15 -11.4,25.94 -9.89,-9.89 -3.17,-25.94 11.4,-25.94" /><path
         id="path120"
         style="fill:#e4212b;fill-opacity:1;fill-rule:evenodd;stroke:none"
         d="m 426.996,1479.91 c 0,-13.53 29.067,-22.25 29.067,4.15 0,7.93 -9.774,12.01 -15.629,11.17 -8.555,-1.24 -13.438,-8.02 -13.438,-15.32" /><path
         id="path122"
         style="fill:#e4212b;fill-opacity:1;fill-rule:evenodd;stroke:none"
         d="m 1757.81,1656.38 c 0,-20.46 26.99,-18.47 26.99,0 0,19.93 -26.99,19.62 -26.99,0" /><path
         id="path124"
         style="fill:#e4212b;fill-opacity:1;fill-rule:evenodd;stroke:none"
         d="m 1406.94,1708.28 c 0,-32.57 42.52,-11.46 23.83,7.22 -8.08,8.09 -23.83,2.74 -23.83,-7.22" /><path
         id="path126"
         style="fill:#e4212b;fill-opacity:1;fill-rule:evenodd;stroke:none"
         d="m 429.07,1425.93 v -6.23 c 8.7,-7.54 5.352,-6.23 20.762,-6.23 20.074,29.98 -20.762,34.03 -20.762,12.46" /><path
         id="path128"
         style="fill:#e4212b;fill-opacity:1;fill-rule:evenodd;stroke:none"
         d="m 1776.5,1581.64 c 0,-21.21 40.95,-19.77 20.76,10.38 h -14.53 c -1.07,-1.59 -6.23,-8.79 -6.23,-10.38" /><path
         id="path130"
         style="fill:#e4212b;fill-opacity:1;fill-rule:evenodd;stroke:none"
         d="m 1377.88,1785.1 c 0,-18.03 1.04,-14.72 12.45,-20.76 11.41,6.04 12.46,2.73 12.46,20.76 -12.7,8.51 -12.21,8.51 -24.91,0" /><path
         id="path132"
         style="fill:#e4212b;fill-opacity:1;fill-rule:evenodd;stroke:none"
         d="m 429.07,1371.95 c 0,-4.9 4.075,-9.24 6.231,-12.46 l 16.609,2.08 c 2.848,11.88 3.352,4.29 0,18.68 -19.445,9.33 -22.84,-7.89 -22.84,-8.3" /><path
         id="path134"
         style="fill:#e4212b;fill-opacity:1;fill-rule:evenodd;stroke:none"
         d="m 1328.05,1837 c 0,-4.89 4.07,-9.23 6.23,-12.45 h 12.45 l 6.23,8.3 c -6.24,26.81 -24.91,9.88 -24.91,4.15" /><path
         id="path136"
         style="fill:#e4212b;fill-opacity:1;fill-rule:evenodd;stroke:none"
         d="m 1818.02,1513.13 6.23,-8.31 h 12.46 c 1.06,1.59 6.23,8.79 6.23,10.38 0,10.87 -19.07,23.03 -24.92,-2.07" /><path
         id="path138"
         style="fill:#e4212b;fill-opacity:1;fill-rule:evenodd;stroke:none"
         d="m 431.148,1322.12 c 0,-16.29 0.325,-16.61 16.61,-16.61 4.797,7.16 9.117,10.51 3.422,17.95 -6.844,8.94 -13.625,2.95 -20.032,-1.34" /><path
         id="path140"
         style="fill:#e4212b;fill-opacity:1;fill-rule:evenodd;stroke:none"
         d="m 1267.84,1882.68 c -3.19,-13.32 -2.93,-4.01 0,-16.61 13.32,-3.19 4.02,-2.93 16.61,0 3.19,13.31 2.93,4.01 0,16.61 -5.27,1.26 -6.65,3.86 -16.61,0" /><path
         id="path142"
         style="fill:#e4212b;fill-opacity:1;fill-rule:evenodd;stroke:none"
         d="m 431.148,1263.98 c 0,-5.6 0.993,-5.72 2.079,-10.37 18.035,-4.21 20.808,-1.43 16.605,16.6 -5.566,1.34 -3.91,2.08 -8.301,2.08 -4.308,0 -10.383,-6.08 -10.383,-8.31" /><path
         id="path144"
         style="fill:#e4212b;fill-opacity:1;fill-rule:evenodd;stroke:none"
         d="m 1878.23,1473.68 c 0,-6.65 -1.47,-16.61 8.31,-16.61 9.94,0 9.16,2.86 10.37,6.23 5.24,0 0.55,21.91 -18.68,10.38" /><path
         id="path146"
         style="fill:#e4212b;fill-opacity:1;fill-rule:evenodd;stroke:none"
         d="m 1193.1,1893.06 c 0,-5.61 0.99,-5.72 2.08,-10.38 h 12.45 l 4.26,8.25 -4.37,8.3 c -4.68,0.07 -14.42,-0.07 -14.42,-6.17" /><path
         id="path148"
         style="fill:#f9cc1e;fill-opacity:1;fill-rule:evenodd;stroke:none"
         d="m 1776.5,1419.7 c 0,-53.29 75.1,-51.79 76.51,-1.89 1.38,48.33 -76.51,50.64 -76.51,1.89" /><path
         id="path150"
         style="fill:#f9cc1e;fill-opacity:1;fill-rule:evenodd;stroke:none"
         d="m 1303.14,1936.66 c 0,-54.68 76.81,-50.24 76.81,-2.08 0,48.58 -76.81,49.69 -76.81,2.08" /><path
         id="path152"
         style="fill:#f9cc1e;fill-opacity:1;fill-rule:evenodd;stroke:none"
         d="m 1857.47,1369.87 c 0,-9.11 5.31,-20.22 9.98,-25.32 21.98,-23.98 64.76,-8.51 64.76,25.32 0,49.31 -74.74,48.21 -74.74,0" /><path
         id="path154"
         style="fill:#f9cc1e;fill-opacity:1;fill-rule:evenodd;stroke:none"
         d="m 1218.01,1974.03 c 0,-56.8 72.67,-53.72 72.67,-2.07 0,27.56 -35.02,46.5 -60.66,25.36 -4.84,-3.99 -12.01,-15.27 -12.01,-23.29" /><path
         id="path156"
         style="fill:#f9cc1e;fill-opacity:1;fill-rule:evenodd;stroke:none"
         d="m 1948.82,1347.03 c 0,-39.09 53.97,-50.83 68.58,-16.68 16.28,38.04 -27.34,68.15 -56.49,41.96 -4.97,-4.46 -12.09,-16.84 -12.09,-25.28" /><path
         id="path158"
         style="fill:#f9cc1e;fill-opacity:1;fill-rule:evenodd;stroke:none"
         d="m 1126.66,1982.34 c 0,-58.18 70.59,-44.86 70.59,-4.16 0,48.73 -70.59,46.12 -70.59,4.16" /><path
         id="path160"
         style="fill:#f9cc1e;fill-opacity:1;fill-rule:evenodd;stroke:none"
         d="m 2046.4,1349.11 c 0,-47.28 68.51,-46.19 68.51,0 0,16.23 -13.77,33.22 -29.06,33.22 h -10.39 c -15.29,0 -29.06,-16.99 -29.06,-33.22" /><path
         id="path162"
         style="fill:#f9cc1e;fill-opacity:1;fill-rule:evenodd;stroke:none"
         d="m 1033.23,1965.73 c 0,-50.48 68.52,-50.48 68.52,0 0,7.19 -6.47,17.22 -10.18,20.96 -21.6,21.83 -58.34,3.54 -58.34,-20.96" /><path
         id="path164"
         style="fill:#f9cc1e;fill-opacity:1;fill-rule:evenodd;stroke:none"
         d="m 2141.9,1380.25 c 0,-49.27 66.44,-41.83 66.44,-2.08 0,43.08 -66.44,45.35 -66.44,2.08" /><path
         id="path166"
         style="fill:#f9cc1e;fill-opacity:1;fill-rule:evenodd;stroke:none"
         d="m 946.039,1917.98 c 0,-34.68 40.938,-41.71 57.261,-24.05 20.62,22.3 4.64,56.79 -24.05,56.83 -16.84,0.02 -33.211,-15.33 -33.211,-32.78" /><path
         id="path168"
         style="fill:#f9cc1e;fill-opacity:1;fill-rule:evenodd;stroke:none"
         d="m 2220.79,1434.23 c 0,-41.53 64.37,-44.37 64.37,0 0,44.78 -64.37,38.02 -64.37,0" /><path
         id="path170"
         style="fill:#f9cc1e;fill-opacity:1;fill-rule:evenodd;stroke:none"
         d="m 877.52,1851.54 c 0,-40.84 64.363,-46.69 64.363,2.07 0,10.46 -8.738,21.42 -17.555,26.05 -19.816,10.4 -46.808,-5.43 -46.808,-28.12" /><path
         id="path172"
         style="fill:#f9cc1e;fill-opacity:1;fill-rule:evenodd;stroke:none"
         d="m 831.848,1770.57 c 0,-29.66 35.312,-40.25 53.406,-22.27 16.484,16.39 9.266,51.93 -22.531,52.72 -15.633,0.38 -30.875,-14.2 -30.875,-30.45" /><path
         id="path174"
         style="fill:#f9cc1e;fill-opacity:1;fill-rule:evenodd;stroke:none"
         d="m 2281,1506.89 c 0,-41.43 62.29,-40.74 62.29,-2.07 0,33.62 -38.47,38.82 -53.49,22.35 -3.61,-3.96 -8.8,-13.8 -8.8,-20.28" /><path
         id="path176"
         style="fill:#f9cc1e;fill-opacity:1;fill-rule:evenodd;stroke:none"
         d="m 408.313,2075.76 c 0,-44 60.207,-39.82 60.207,0 0,36.02 -60.207,40.21 -60.207,0" /><path
         id="path178"
         style="fill:#f9cc1e;fill-opacity:1;fill-rule:evenodd;stroke:none"
         d="m 2378.58,1589.94 c 0,17.28 -12.39,31.14 -29.06,31.14 -27.95,0 -39.35,-32.85 -22.47,-49.45 7.86,-7.74 19.34,-12.2 31.9,-7.87 8.77,3.03 19.63,15.45 19.63,26.18" /><path
         id="path180"
         style="fill:#f9cc1e;fill-opacity:1;fill-rule:evenodd;stroke:none"
         d="m 811.082,1683.37 c 0,-43.89 58.133,-43.89 58.133,0 0,34.56 -58.133,34.56 -58.133,0" /><path
         id="path182"
         style="fill:#f9cc1e;fill-opacity:1;fill-rule:evenodd;stroke:none"
         d="m 516.27,2044.62 c 30.668,0 35.656,36.04 22.484,49.47 -17.012,17.37 -51.106,8.36 -50.309,-20.12 0.555,-19.61 16.364,-29.35 27.825,-29.35" /><path
         id="path184"
         style="fill:#f9cc1e;fill-opacity:1;fill-rule:evenodd;stroke:none"
         d="m 815.238,1589.94 c 0,-44.27 56.055,-38.1 56.055,-4.15 0,39.97 -56.055,35.41 -56.055,4.15" /><path
         id="path186"
         style="fill:#f9cc1e;fill-opacity:1;fill-rule:evenodd;stroke:none"
         d="m 2332.91,1687.52 c 0,-45.48 56.05,-37.2 56.05,-2.07 0,6.09 -4.96,15.6 -8.06,18.92 -15.03,16.08 -47.99,7.07 -47.99,-16.85" /><path
         id="path188"
         style="fill:#f9cc1e;fill-opacity:1;fill-rule:evenodd;stroke:none"
         d="m 493.434,2007.25 c 0,-58.23 81.093,-24.66 48.152,14.93 -15.863,19.08 -48.152,6.02 -48.152,-14.93" /><path
         id="path190"
         style="fill:#f9cc1e;fill-opacity:1;fill-rule:evenodd;stroke:none"
         d="m 2318.38,1783.02 c 0,-47.16 53.98,-31.59 53.98,-6.22 0,40.69 -53.98,35.1 -53.98,6.22" /><path
         id="path192"
         style="fill:#f9cc1e;fill-opacity:1;fill-rule:evenodd;stroke:none"
         d="m 846.379,1496.52 c 0,-38.78 53.98,-36.51 53.98,0 0,32.73 -53.98,33.63 -53.98,0" /><path
         id="path194"
         style="fill:#f9cc1e;fill-opacity:1;fill-rule:evenodd;stroke:none"
         d="m 520.426,1909.67 c 36.215,0 34.687,53.98 0,53.98 -34.875,0 -32.965,-53.98 0,-53.98" /><path
         id="path196"
         style="fill:#f9cc1e;fill-opacity:1;fill-rule:evenodd;stroke:none"
         d="m 2276.85,1870.22 c 0,-30.22 28.83,-34.73 43.24,-20.4 13.9,13.81 10.15,43.24 -20.4,43.24 -12.13,0 -22.84,-10.7 -22.84,-22.84" /><path
         id="path198"
         style="fill:#f9cc1e;fill-opacity:1;fill-rule:evenodd;stroke:none"
         d="m 904.512,1417.62 c 0,-40.45 49.828,-38.21 49.828,0 0,28.88 -49.828,30.64 -49.828,0" /><path
         id="path200"
         style="fill:#f9cc1e;fill-opacity:1;fill-rule:evenodd;stroke:none"
         d="m 495.512,1868.14 c 0,-5.51 3.101,-11.75 5.808,-14.94 10.289,-12.14 44.016,-14.91 44.016,19.1 0,28.75 -49.824,32.93 -49.824,-4.16" /><path
         id="path202"
         style="fill:#f9cc1e;fill-opacity:1;fill-rule:evenodd;stroke:none"
         d="m 979.254,1357.41 c 0,-36.09 47.756,-35.83 47.756,0 0,30.22 -47.756,30.22 -47.756,0" /><path
         id="path204"
         style="fill:#f9cc1e;fill-opacity:1;fill-rule:evenodd;stroke:none"
         d="m 2214.57,1940.81 c 0,-36.66 47.75,-36.66 47.75,0 0,27.67 -47.75,27.67 -47.75,0" /><path
         id="path206"
         style="fill:#f9cc1e;fill-opacity:1;fill-rule:evenodd;stroke:none"
         d="m 497.586,1805.86 c 0,-40.54 47.75,-30.24 47.75,-4.15 0,32.11 -47.75,32.08 -47.75,4.15" /><path
         id="path208"
         style="fill:#f9cc1e;fill-opacity:1;fill-rule:evenodd;stroke:none"
         d="m 1066.45,1322.12 c 0,-7.16 -0.97,-13.41 7.05,-19.94 31.86,-25.9 61.43,40.7 13.71,40.7 -10.44,0 -20.76,-10.33 -20.76,-20.76" /><path
         id="path210"
         style="fill:#f9cc1e;fill-opacity:1;fill-rule:evenodd;stroke:none"
         d="m 2135.67,1988.56 c 0,-28.31 30.85,-30.98 41.99,-17.05 11.17,13.98 1.72,37.82 -19.15,37.82 -11.11,0 -22.84,-10.66 -22.84,-20.77" /><path
         id="path212"
         style="fill:#f9cc1e;fill-opacity:1;fill-rule:evenodd;stroke:none"
         d="m 497.586,1735.27 c 0,-17.13 24.098,-31.91 40.082,-15.16 19.512,20.44 -12.133,51.87 -32.434,32.43 -3.078,-2.95 -7.648,-12.61 -7.648,-17.27" /><path
         id="path214"
         style="fill:#f9cc1e;fill-opacity:1;fill-rule:evenodd;stroke:none"
         d="m 2069.23,1988.56 c 25.65,0 34.97,43.6 -2.07,43.6 -28.32,0 -23.98,-43.6 2.07,-43.6" /><path
         id="path216"
         style="fill:#f9cc1e;fill-opacity:1;fill-rule:evenodd;stroke:none"
         d="m 1159.88,1311.74 c 0,-34.38 43.6,-31.44 43.6,-2.08 0,27.44 -43.6,27.39 -43.6,2.08" /><path
         id="path218"
         style="fill:#f9cc1e;fill-opacity:1;fill-rule:evenodd;stroke:none"
         d="m 499.664,1666.76 c 0,-13.29 10.141,-18.69 22.836,-18.69 24.117,0 29.688,41.53 -4.152,41.53 -12.746,0 -18.684,-9.89 -18.684,-22.84" /><path
         id="path220"
         style="fill:#f9cc1e;fill-opacity:1;fill-rule:evenodd;stroke:none"
         d="m 1253.31,1324.2 c 0,-23.75 41.52,-31.77 41.52,2.07 0,27.04 -41.52,22.86 -41.52,-2.07" /><path
         id="path222"
         style="fill:#f9cc1e;fill-opacity:1;fill-rule:evenodd;stroke:none"
         d="m 1955.05,2013.48 c 0,-31.93 26.65,-25.04 33.7,-19.18 13.79,11.45 3.57,35.79 -8.79,35.79 -8.09,0 -13.35,1.18 -20.05,-4.87 -3.51,-3.17 -4.86,-5.8 -4.86,-11.74" /><path
         id="path224"
         style="fill:#f9cc1e;fill-opacity:1;fill-rule:evenodd;stroke:none"
         d="m 501.738,1604.48 c 0,-11.07 2.887,-22.84 18.688,-22.84 24.652,0 31.519,39.44 -2.078,39.44 -10.043,0 -16.61,-6.56 -16.61,-16.6" /><path
         id="path226"
         style="fill:#f9cc1e;fill-opacity:1;fill-rule:evenodd;stroke:none"
         d="m 1861.62,1982.34 c 0,-30.03 37.37,-22.28 37.37,-6.23 0,10.53 0.48,24.91 -18.69,24.91 -10.26,0 -18.68,-8.42 -18.68,-18.68" /><path
         id="path228"
         style="fill:#f9cc1e;fill-opacity:1;fill-rule:evenodd;stroke:none"
         d="m 1382.03,1365.72 c 0,14.25 -6.51,20.76 -20.76,20.76 -17.59,0 -22.81,-21.86 -11.95,-32.71 10.85,-10.85 32.71,-5.64 32.71,11.95" /><path
         id="path230"
         style="fill:#f9cc1e;fill-opacity:1;fill-rule:evenodd;stroke:none"
         d="m 501.738,1535.96 c 0,-25.62 37.371,-28.18 37.371,0 0,11.43 -9.859,17.9 -18.714,17.84 -8.235,-0.03 -18.657,-7.96 -18.657,-17.84" /><path
         id="path232"
         style="fill:#f9cc1e;fill-opacity:1;fill-rule:evenodd;stroke:none"
         d="m 1782.73,1928.36 c 0,-21.97 35.29,-30.64 35.29,4.15 0,15.86 -35.29,21.57 -35.29,-4.15" /><path
         id="path234"
         style="fill:#f9cc1e;fill-opacity:1;fill-rule:evenodd;stroke:none"
         d="m 503.813,1471.6 c 0,-32 35.296,-22.8 35.296,-4.15 0,7.64 -7.597,16.41 -15.336,17.85 -8.46,1.58 -19.96,-5.57 -19.96,-13.7" /><path
         id="path236"
         style="fill:#f9cc1e;fill-opacity:1;fill-rule:evenodd;stroke:none"
         d="m 1465.07,1515.2 c 0,-25.59 33.22,-24.26 33.22,-4.15 0,29.66 -33.22,18.08 -33.22,4.15" /><path
         id="path238"
         style="fill:#f9cc1e;fill-opacity:1;fill-rule:evenodd;stroke:none"
         d="m 1687.22,1774.72 c 0,-26.67 31.14,-23.97 31.14,0 0,16.55 -31.14,16.55 -31.14,0" /><path
         id="path240"
         style="fill:#005fae;fill-opacity:1;fill-rule:evenodd;stroke:none"
         d="m 1529.44,1760.19 c 0,-24.58 24.32,-45.68 39.44,-45.68 h 14.54 c 56.04,0 56.59,95.51 -6.23,95.51 -12.73,0 -26.73,-7.75 -33.36,-14.4 -8.22,-8.24 -14.39,-19.16 -14.39,-35.43" /><path
         id="path242"
         style="fill:#005fae;fill-opacity:1;fill-rule:evenodd;stroke:none"
         d="m 1560.58,1629.39 c 0,-73.4 95.5,-62.92 95.5,-4.16 0,63.92 -95.5,61.68 -95.5,4.16" /><path
         id="path244"
         style="fill:#005fae;fill-opacity:1;fill-rule:evenodd;stroke:none"
         d="m 1589.64,1511.05 c 0,-22.4 20.84,-45.68 43.6,-45.68 14.8,0 27.81,1.99 37.78,14.13 28.68,34.92 1.43,77.23 -29.47,77.23 -17.9,0 -23.28,0.82 -39,-14.98 -6.75,-6.79 -12.91,-18.18 -12.91,-30.7" /><path
         id="path246"
         style="fill:#005fae;fill-opacity:1;fill-rule:evenodd;stroke:none"
         d="M 1485.84,1874.38 V 1864 c 0,-21.95 24.52,-41.03 45.67,-41.03 57.09,0 66.2,92.93 -4.15,92.93 -20.9,0 -41.52,-20.24 -41.52,-41.52" /><path
         id="path248"
         style="fill:#005fae;fill-opacity:1;fill-rule:evenodd;stroke:none"
         d="m 1452.62,2005.17 c -9.78,-2.52 -19.2,-0.93 -30.62,-15.06 -6.01,-7.44 -11.8,-21.33 -9.9,-33.61 9.97,-64.54 98.36,-42.32 89.36,10.13 -2.3,13.42 -7.69,22.87 -16.16,29.71 -16.56,13.39 -29.66,9.61 -32.68,8.83" /><path
         id="path250"
         style="fill:#005fae;fill-opacity:1;fill-rule:evenodd;stroke:none"
         d="m 1651.93,1413.47 c 0,-31.92 20.38,-50.77 45.26,-49.26 38.61,2.34 57.51,44.65 33.09,73.63 -25.3,30.03 -78.35,13.3 -78.35,-24.37" /><path
         id="path252"
         style="fill:#005fae;fill-opacity:1;fill-rule:evenodd;stroke:none"
         d="m 1739.13,1326.27 c 0,-22.37 21.23,-43.6 43.6,-43.6 57.46,0 57.98,87.2 0,87.2 -22.93,0 -43.6,-21.14 -43.6,-43.6" /><path
         id="path254"
         style="fill:#005fae;fill-opacity:1;fill-rule:evenodd;stroke:none"
         d="m 1315.59,2034.24 c 0,-57.88 61.48,-58.85 79.96,-25.99 14.88,26.47 -1.92,63.89 -36.51,65.13 -21.35,0.76 -43.45,-17.87 -43.45,-39.14" /><path
         id="path256"
         style="fill:#005fae;fill-opacity:1;fill-rule:evenodd;stroke:none"
         d="m 1197.25,2067.46 c 0,-12.13 6.41,-22.16 12.87,-28.66 4.98,-5 5.52,-6.03 12.22,-8.53 67.57,-25.21 80.37,83.03 15.17,79.43 -12.23,-0.68 -22.24,-5.9 -28.39,-12.59 -6.29,-6.85 -11.87,-17.53 -11.87,-29.65" /><path
         id="path258"
         style="fill:#005fae;fill-opacity:1;fill-rule:evenodd;stroke:none"
         d="m 1853.31,1276.45 c 0,-16.47 -1.06,-23.13 10.8,-34.89 29.77,-29.52 72.25,-4.56 72.25,26.58 0,33.05 -37.44,58.75 -68.91,33.62 -5.68,-4.54 -14.14,-16 -14.14,-25.31" /><path
         id="path260"
         style="fill:#005fae;fill-opacity:1;fill-rule:evenodd;stroke:none"
         d="m 1973.73,1253.61 c 0,-14.5 -0.33,-22.72 12.89,-34.87 28.79,-26.48 66.01,0.82 66.01,22.41 0,25.15 -8.66,45.51 -37.78,47.19 -22.79,1.31 -41.12,-19.61 -41.12,-34.73" /><path
         id="path262"
         style="fill:#005fae;fill-opacity:1;fill-rule:evenodd;stroke:none"
         d="m 1078.91,2077.84 c 0,-14.24 -0.18,-23.82 10.8,-34.88 19.09,-19.22 68.09,-16.16 68.09,30.72 0,34.93 -43.3,48.55 -66.8,27.37 -4.35,-3.93 -12.09,-15.49 -12.09,-23.21" /><path
         id="path264"
         style="fill:#005fae;fill-opacity:1;fill-rule:evenodd;stroke:none"
         d="m 1002.09,2003.1 c 25.34,0 40.17,15.79 40.8,37.6 1.38,47.77 -71.937,54.35 -77.316,3.23 -2.176,-20.69 15.742,-40.83 36.516,-40.83" /><path
         id="path266"
         style="fill:#005fae;fill-opacity:1;fill-rule:evenodd;stroke:none"
         d="m 2092.07,1259.83 c 0,-34.43 41.7,-49.09 64.96,-27.58 35.24,32.6 -13.19,93.46 -53.13,55.21 -6.99,-6.69 -11.83,-14.95 -11.83,-27.63" /><path
         id="path268"
         style="fill:#005fae;fill-opacity:1;fill-rule:evenodd;stroke:none"
         d="m 480.977,2181.64 c 0,-51.09 74.742,-47.64 74.742,-2.07 0,51.1 -74.742,47.64 -74.742,2.07" /><path
         id="path270"
         style="fill:#005fae;fill-opacity:1;fill-rule:evenodd;stroke:none"
         d="m 2202.11,1305.51 c 0,-17.1 14.9,-37.37 31.14,-37.37 h 12.46 c 20.75,0 44.63,35.27 21.38,60.83 -23.32,25.63 -64.98,6.69 -64.98,-23.46" /><path
         id="path272"
         style="fill:#005fae;fill-opacity:1;fill-rule:evenodd;stroke:none"
         d="m 867.141,1982.34 c 0,-10.47 2.078,-19.65 9.812,-27.56 13.797,-14.1 62.856,-20.88 62.856,31.7 0,39.33 -72.668,44.19 -72.668,-4.14" /><path
         id="path274"
         style="fill:#005fae;fill-opacity:1;fill-rule:evenodd;stroke:none"
         d="m 788.246,1901.36 v -12.45 c 0,-37.64 70.156,-41.07 70.156,6.23 0,46.42 -70.156,43.4 -70.156,6.22" /><path
         id="path276"
         style="fill:#005fae;fill-opacity:1;fill-rule:evenodd;stroke:none"
         d="m 570.25,2181.64 c 0,-49.2 70.59,-47.11 70.59,0 0,44.83 -70.59,45.91 -70.59,0" /><path
         id="path278"
         style="fill:#005fae;fill-opacity:1;fill-rule:evenodd;stroke:none"
         d="m 2297.61,1380.25 c 0,-52.43 70.59,-52.43 70.59,0 0,25.91 -37.4,42.74 -59.7,22.34 -4.23,-3.87 -10.89,-15.04 -10.89,-22.34" /><path
         id="path280"
         style="fill:#005fae;fill-opacity:1;fill-rule:evenodd;stroke:none"
         d="m 572.328,2100.68 v -10.38 c 0,-16.6 18.762,-28.91 34.781,-28.07 43.469,2.31 41.801,67.51 -1.562,67.51 -16.234,0 -33.219,-13.78 -33.219,-29.06" /><path
         id="path282"
         style="fill:#005fae;fill-opacity:1;fill-rule:evenodd;stroke:none"
         d="m 734.266,1787.18 c 0,-35.58 39.328,-42.91 57.742,-24.53 20.726,20.7 5.816,57.74 -24.524,57.74 -18.199,0 -33.218,-14.6 -33.218,-33.21" /><path
         id="path284"
         style="fill:#005fae;fill-opacity:1;fill-rule:evenodd;stroke:none"
         d="m 2370.28,1475.75 c 0,-45.61 68.46,-43.92 67.25,-0.29 -0.23,8.62 -3.41,17.29 -7.88,22.3 -19.49,21.84 -59.37,10.62 -59.37,-22.01" /><path
         id="path286"
         style="fill:#005fae;fill-opacity:1;fill-rule:evenodd;stroke:none"
         d="m 601.395,1982.34 c 23.929,0 37.308,14.04 36.39,32.67 -2.004,40.87 -60.437,42.02 -64.648,1.92 -1.711,-16.29 12.148,-34.59 28.258,-34.59" /><path
         id="path288"
         style="fill:#005fae;fill-opacity:1;fill-rule:evenodd;stroke:none"
         d="m 2411.8,1592.02 c 0,-13.92 13.17,-31.14 26.99,-31.14 21.87,0 37.37,6.33 37.37,33.21 0,40.18 -64.36,40.89 -64.36,-2.07" /><path
         id="path290"
         style="fill:#005fae;fill-opacity:1;fill-rule:evenodd;stroke:none"
         d="m 713.504,1664.68 c 0,-42.03 64.363,-42.03 64.363,0 0,42.7 -64.363,42.7 -64.363,0" /><path
         id="path292"
         style="fill:#005fae;fill-opacity:1;fill-rule:evenodd;stroke:none"
         d="m 728.039,1546.34 c 0,-43.71 62.281,-36.63 62.281,-2.07 0,42.6 -62.281,43.47 -62.281,2.07" /><path
         id="path294"
         style="fill:#005fae;fill-opacity:1;fill-rule:evenodd;stroke:none"
         d="m 574.402,1934.58 c 0,-46.4 62.286,-41.32 62.286,-2.07 0,22.97 -30.629,42.2 -51.528,22.45 -4.414,-4.17 -10.758,-12.78 -10.758,-20.38" /><path
         id="path296"
         style="fill:#005fae;fill-opacity:1;fill-rule:evenodd;stroke:none"
         d="m 2420.11,1716.59 c 0,-20.06 5.37,-35.3 31.14,-35.3 18.35,0 28.44,14.24 29.07,28.87 v 2.87 c -0.62,14.49 -10.61,28.47 -31.15,28.47 -14.26,0 -29.06,-11.37 -29.06,-24.91" /><path
         id="path298"
         style="fill:#005fae;fill-opacity:1;fill-rule:evenodd;stroke:none"
         d="m 576.48,1853.61 c 0,-47.13 58.133,-39.02 58.133,-4.15 0,40.76 -58.133,35.74 -58.133,4.15" /><path
         id="path300"
         style="fill:#005fae;fill-opacity:1;fill-rule:evenodd;stroke:none"
         d="m 802.781,1409.32 c 42.528,0 34.617,58.13 2.074,58.13 -39.316,0 -41.042,-58.13 -2.074,-58.13" /><path
         id="path302"
         style="fill:#005fae;fill-opacity:1;fill-rule:evenodd;stroke:none"
         d="m 2393.12,1826.62 c 0,-17.38 12.81,-29.3 27.38,-30.64 34.33,-3.17 48.85,57.63 -2.47,57.63 -12.4,0 -24.91,-14.57 -24.91,-26.99" /><path
         id="path304"
         style="fill:#005fae;fill-opacity:1;fill-rule:evenodd;stroke:none"
         d="m 2337.06,1928.36 c 0,-39.18 56.06,-34.59 56.06,-2.08 0,37.8 -56.06,37.28 -56.06,2.08" /><path
         id="path306"
         style="fill:#005fae;fill-opacity:1;fill-rule:evenodd;stroke:none"
         d="m 848.453,1347.03 c 0,-23.49 28.117,-39.57 46.367,-21.45 28.282,28.09 -12.195,62.94 -36.648,40.8 -4.117,-3.72 -9.719,-12.9 -9.719,-19.35" /><path
         id="path308"
         style="fill:#005fae;fill-opacity:1;fill-rule:evenodd;stroke:none"
         d="m 578.559,1772.64 c 0,-17.84 7.371,-33.73 28.539,-32.26 33.097,2.31 36.082,55.1 -3.629,55.1 -11.188,0 -24.91,-11.18 -24.91,-22.84" /><path
         id="path310"
         style="fill:#005fae;fill-opacity:1;fill-rule:evenodd;stroke:none"
         d="m 2254.02,2013.48 c 0,-41.79 51.9,-32.36 51.9,-4.15 0,38.07 -51.9,33.17 -51.9,4.15" /><path
         id="path312"
         style="fill:#005fae;fill-opacity:1;fill-rule:evenodd;stroke:none"
         d="m 948.113,1278.52 c 0,-41.99 51.907,-31.75 51.907,-4.15 0,35.55 -51.907,35.56 -51.907,4.15" /><path
         id="path314"
         style="fill:#005fae;fill-opacity:1;fill-rule:evenodd;stroke:none"
         d="m 603.469,1660.53 c 39.164,0 33.027,51.9 2.078,51.9 -34.266,0 -34.164,-51.9 -2.078,-51.9" /><path
         id="path316"
         style="fill:#005fae;fill-opacity:1;fill-rule:evenodd;stroke:none"
         d="m 580.633,1606.55 c 0,-38.2 49.828,-32.42 49.828,-2.07 0,33.19 -49.828,29.97 -49.828,2.07" /><path
         id="path318"
         style="fill:#005fae;fill-opacity:1;fill-rule:evenodd;stroke:none"
         d="m 2146.05,2071.61 c 0,-34.91 47.75,-37.55 47.75,0 0,30.41 -47.75,28.1 -47.75,0" /><path
         id="path320"
         style="fill:#005fae;fill-opacity:1;fill-rule:evenodd;stroke:none"
         d="m 1066.45,1237 c 0,-31.83 47.76,-36.32 47.76,2.07 0,27.89 -47.76,28.06 -47.76,-2.07" /><path
         id="path322"
         style="fill:#005fae;fill-opacity:1;fill-rule:evenodd;stroke:none"
         d="m 1188.95,1230.77 c 0,-28.01 45.67,-33.39 45.67,2.07 0,27.75 -45.67,27.82 -45.67,-2.07" /><path
         id="path324"
         style="fill:#005fae;fill-opacity:1;fill-rule:evenodd;stroke:none"
         d="m 2027.71,2094.45 c 0,-31 45.68,-34.05 45.68,0 0,29.51 -45.68,26.18 -45.68,0" /><path
         id="path326"
         style="fill:#005fae;fill-opacity:1;fill-rule:evenodd;stroke:none"
         d="m 582.707,1523.51 c 0,-34.45 45.676,-28.62 45.676,-4.16 0,35.11 -45.676,30.43 -45.676,4.16" /><path
         id="path328"
         style="fill:#005fae;fill-opacity:1;fill-rule:evenodd;stroke:none"
         d="m 1305.21,1257.76 c 0,-26.3 43.6,-26.64 43.6,2.07 0,25.67 -43.6,29.42 -43.6,-2.07" /><path
         id="path330"
         style="fill:#005fae;fill-opacity:1;fill-rule:evenodd;stroke:none"
         d="m 1911.45,2081.99 c 0,-25.95 43.6,-28.98 43.6,2.08 0,26.29 -43.6,26.64 -43.6,-2.08" /><path
         id="path332"
         style="fill:#005fae;fill-opacity:1;fill-rule:evenodd;stroke:none"
         d="m 584.785,1442.54 c 0,-31.06 41.524,-31.06 41.524,0 0,24.04 -41.524,25.74 -41.524,0" /><path
         id="path334"
         style="fill:#005fae;fill-opacity:1;fill-rule:evenodd;stroke:none"
         d="m 1409.02,1317.96 c 0,-29.03 39.44,-23.96 39.44,-2.07 0,28.7 -39.44,26.16 -39.44,2.07" /><path
         id="path336"
         style="fill:#005fae;fill-opacity:1;fill-rule:evenodd;stroke:none"
         d="m 1803.49,2040.46 c 0,-20.53 39.45,-30.46 39.45,2.08 0,25.15 -39.45,22.77 -39.45,-2.08" /><path
         id="path338"
         style="fill:#005fae;fill-opacity:1;fill-rule:evenodd;stroke:none"
         d="m 586.859,1363.64 c 0,-10.53 -0.48,-24.91 18.688,-24.91 26.699,0 23.683,39.44 0,39.44 -8.109,0 -18.688,-7.92 -18.688,-14.53" /><path
         id="path340"
         style="fill:#005fae;fill-opacity:1;fill-rule:evenodd;stroke:none"
         d="m 586.859,1274.37 c 0,-22.33 37.371,-21.29 37.371,2.08 0,21.64 -37.371,26 -37.371,-2.08" /><path
         id="path342"
         style="fill:#005fae;fill-opacity:1;fill-rule:evenodd;stroke:none"
         d="m 1492.06,1401.01 c 0,-21.4 37.38,-21.4 37.38,0 0,25.52 -37.38,24.48 -37.38,0" /><path
         id="path344"
         style="fill:#005fae;fill-opacity:1;fill-rule:evenodd;stroke:none"
         d="m 1712.14,1974.03 c 0,-33.64 35.29,-25.35 35.29,-4.15 0,25.46 -35.29,21.53 -35.29,4.15" /><path
         id="path346"
         style="fill:#005fae;fill-opacity:1;fill-rule:evenodd;stroke:none"
         d="m 1550.2,1508.97 c 0,-16.97 33.22,-28.34 33.22,4.16 0,16.41 -33.22,18.1 -33.22,-4.16" /><path
         id="path348"
         style="fill:#005fae;fill-opacity:1;fill-rule:evenodd;stroke:none"
         d="m 588.938,1193.4 c 0,-10.5 11.308,-16.22 16.347,-16.09 21.942,0.55 20.203,32.69 4.414,32.69 -6.914,0 -20.761,0.96 -20.761,-16.6" /><path
         id="path350"
         style="fill:#005fae;fill-opacity:1;fill-rule:evenodd;stroke:none"
         d="m 1654,1855.69 c 24.85,0 25.13,33.22 2.08,33.22 -25.17,0 -15.74,-33.22 -2.08,-33.22" /><path
         id="path352"
         style="fill:#005fae;fill-opacity:1;fill-rule:evenodd;stroke:none"
         d="m 591.012,1112.43 c 0,-19.95 29.066,-19.95 29.066,0 0,19.94 -29.066,19.94 -29.066,0" /><path
         id="path354"
         style="fill:#00488e;fill-opacity:1;fill-rule:evenodd;stroke:none"
         d="m 1737.05,776.141 h 49.83 v 205.488 l 158.51,-205.414 h 54.84 l -0.01,287.145 H 1950.9 V 852.906 l -161.85,210.474 h -51.8 l -0.2,-287.239" /><path
         id="path356"
         style="fill:#00488e;fill-opacity:1;fill-rule:evenodd;stroke:none"
         d="m 524.578,917.27 h -68.515 v 99.65 h 58.132 c 41.246,0 70.59,-5.83 70.59,-47.748 0,-38.637 -21.637,-51.902 -60.207,-51.902 z M 406.234,776.254 h 49.829 v 95.34 l 61.386,0.172 69.324,-95.59 h 63.075 l -75.446,103.722 c 35.274,8.215 60.211,41.02 60.211,78.895 0,34.793 -1.98,69.217 -42.933,89.937 -42.707,18.27 -71.465,14.61 -185.485,14.61 l 0.039,-287.086" /><path
         id="path358"
         style="fill:#00488f;fill-opacity:1;fill-rule:evenodd;stroke:none"
         d="m 1093.98,776.238 -0.54,215.774 95.31,-188.61 h 30.46 l 95.56,191.098 0.79,-218.262 h 49.86 v 287.032 h -73.82 l -86.85,-177.141 -88.58,177.441 -72.56,-0.23 V 776.238 h 50.37" /><path
         id="path360"
         style="fill:#00488f;fill-opacity:1;fill-rule:evenodd;stroke:none"
         d="m 2314.22,1000.32 49.83,-114.191 h -99.66 z M 2164.74,776.09 h 51.9 l 26.99,64.359 h 143.26 l 26.99,-64.359 h 51.9 l -30.55,73.262 -95.45,213.888 -45.83,0.24 -129.21,-287.39" /><path
         id="path362"
         style="fill:#e2212b;fill-opacity:1;fill-rule:evenodd;stroke:none"
         d="m 1948.82,1440.46 c 6.54,-12.36 6.39,-12.74 18.68,-6.23 0,20.68 -12.1,16.06 -17.17,8.87 -0.22,-0.31 -0.6,-1.05 -0.77,-1.31 -0.17,-0.27 -0.45,-0.91 -0.74,-1.33" /><path
         id="path364"
         style="fill:#00488f;fill-opacity:1;fill-rule:evenodd;stroke:none"
         d="m 1551.5,1111.51 -24.51,-26.4 h -44.96 l 46.99,52.8 h 41.81 l 50.13,-52.8 H 1576 l -24.5,26.4" /><path
         id="path366"
         style="fill:#00488f;fill-opacity:1;fill-rule:evenodd;stroke:none"
         d="m 1550.45,1000.32 49.84,-114.191 h -99.66 z M 1400.97,776.09 h 51.91 l 26.99,64.359 h 143.25 l 26.99,-64.359 h 51.91 l -30.55,73.262 -95.46,213.888 -45.83,0.24 -129.21,-287.39" /><path
         id="path368"
         style="fill:#00488f;fill-opacity:1;fill-rule:evenodd;stroke:none"
         d="m 2077.54,1062.6 h 52.16 V 775.305 h -52.16 V 1062.6" /><path
         id="path370"
         style="fill:#00488e;fill-opacity:1;fill-rule:evenodd;stroke:none"
         d="m 831.652,1069.38 c 82.555,0 149.477,-66.92 149.477,-149.478 0,-82.554 -66.922,-149.476 -149.477,-149.476 -82.554,0 -149.48,66.922 -149.48,149.476 0,82.558 66.926,149.478 149.48,149.478 z m 0,-44.07 c 58.215,0 105.403,-47.193 105.403,-105.408 0,-58.211 -47.188,-105.402 -105.403,-105.402 -58.214,0 -105.406,47.191 -105.406,105.402 0,58.215 47.192,105.408 105.406,105.408" /><path
         id="path372"
         style="fill:#000000;fill-opacity:1;fill-rule:nonzero;stroke:none"
         d="m 436.871,622.742 h -9.414 v 60.66 c 0,5.047 0.156,9.817 0.457,14.305 -0.816,-0.812 -1.73,-1.668 -2.742,-2.562 -0.996,-0.895 -5.625,-4.672 -13.852,-11.368 l -5.125,6.661 22.532,17.421 h 8.144 z m 88.336,48.762 c 0,-33.301 -12.894,-49.949 -38.664,-49.949 -4.508,0 -8.086,0.394 -10.727,1.168 v 8.328 c 3.118,-1.016 6.633,-1.512 10.61,-1.512 9.316,0 16.351,2.883 21.101,8.645 4.766,5.761 7.348,14.601 7.786,26.523 h -0.715 c -2.125,-3.219 -4.965,-5.684 -8.504,-7.371 -3.516,-1.691 -7.508,-2.523 -11.922,-2.523 -7.527,0 -13.508,2.246 -17.942,6.753 -4.429,4.493 -6.632,10.789 -6.632,18.856 0,8.844 2.461,15.836 7.406,20.941 4.973,5.125 11.469,7.688 19.555,7.688 5.781,0 10.828,-1.488 15.156,-4.449 4.332,-2.981 7.672,-7.289 9.996,-12.993 2.324,-5.683 3.496,-12.379 3.496,-20.105 z m -28.648,29.324 c -5.563,0 -9.856,-1.789 -12.879,-5.363 -3.039,-3.578 -4.547,-8.547 -4.547,-14.902 0,-5.606 1.41,-9.993 4.195,-13.196 2.801,-3.199 7.051,-4.804 12.75,-4.804 3.539,0 6.797,0.714 9.758,2.144 2.98,1.449 5.305,3.395 7.016,5.898 1.707,2.489 2.562,5.09 2.562,7.79 0,4.093 -0.797,7.851 -2.387,11.304 -1.586,3.461 -3.812,6.18 -6.656,8.168 -2.859,1.969 -6.137,2.961 -9.812,2.961 z m 76.652,-78.086 h -9.418 v 60.66 c 0,5.047 0.16,9.817 0.457,14.305 -0.816,-0.812 -1.73,-1.668 -2.742,-2.562 -0.992,-0.895 -5.621,-4.672 -13.848,-11.368 l -5.125,6.661 22.528,17.421 h 8.148 z m 60.559,86.309 c 7.746,0 13.906,-1.805 18.457,-5.403 4.531,-3.617 6.812,-8.601 6.812,-14.96 0,-4.192 -1.309,-8.008 -3.91,-11.465 -2.606,-3.457 -6.758,-6.598 -12.457,-9.438 6.914,-3.297 11.82,-6.754 14.738,-10.39 2.903,-3.633 4.352,-7.829 4.352,-12.598 0,-7.074 -2.461,-12.715 -7.391,-16.926 -4.926,-4.211 -11.68,-6.316 -20.262,-6.316 -9.082,0 -16.078,1.984 -20.964,5.957 -4.887,3.996 -7.329,9.636 -7.329,16.929 0,9.754 5.938,17.344 17.821,22.77 -5.367,3.039 -9.199,6.297 -11.547,9.812 -2.324,3.5 -3.473,7.434 -3.473,11.786 0,6.16 2.262,11.086 6.832,14.742 4.551,3.672 10.672,5.5 18.321,5.5 z m -18.418,-64.828 c 0,-4.668 1.628,-8.285 4.867,-10.891 3.238,-2.602 7.789,-3.914 13.652,-3.914 5.797,0 10.289,1.352 13.527,4.074 3.219,2.723 4.829,6.457 4.829,11.188 0,3.773 -1.512,7.133 -4.551,10.05 -3.02,2.942 -8.305,5.786 -15.832,8.547 -5.785,-2.484 -9.977,-5.226 -12.578,-8.246 -2.602,-3.019 -3.914,-6.617 -3.914,-10.808 z m 18.296,56.961 c -4.867,0 -8.66,-1.172 -11.421,-3.496 -2.762,-2.325 -4.133,-5.426 -4.133,-9.297 0,-3.578 1.152,-6.637 3.437,-9.2 2.285,-2.562 6.516,-5.125 12.696,-7.687 5.562,2.324 9.476,4.824 11.8,7.508 2.305,2.683 3.457,5.801 3.457,9.379 0,3.914 -1.41,7.031 -4.211,9.336 -2.824,2.304 -6.695,3.457 -11.625,3.457 z m 39.161,-50.922 v 8.84 h 28.613 v -8.84 z m 95.269,-27.52 h -55.969 v 8.328 l 22.434,22.532 c 6.812,6.914 11.324,11.839 13.508,14.8 2.168,2.942 3.797,5.821 4.887,8.602 1.074,2.805 1.632,5.805 1.632,9.043 0,4.527 -1.39,8.125 -4.132,10.785 -2.762,2.664 -6.598,3.996 -11.485,3.996 -3.539,0 -6.875,-0.578 -10.035,-1.75 -3.176,-1.152 -6.695,-3.277 -10.57,-6.336 l -5.125,6.578 c 7.828,6.496 16.371,9.731 25.609,9.731 8.008,0 14.27,-2.043 18.816,-6.137 4.551,-4.094 6.817,-9.598 6.817,-16.512 0,-5.382 -1.512,-10.726 -4.551,-16.015 -3.019,-5.262 -8.684,-11.938 -17.008,-20.004 L 724.27,632.145 v -0.461 h 43.808 z m 68.629,42.66 c 0,-14.722 -2.328,-25.711 -6.957,-32.961 -4.648,-7.253 -11.742,-10.886 -21.277,-10.886 -9.18,0 -16.133,3.711 -20.922,11.144 -4.77,7.43 -7.153,18.34 -7.153,32.703 0,14.821 2.305,25.809 6.934,33 4.609,7.176 11.66,10.77 21.141,10.77 9.238,0 16.254,-3.758 21.043,-11.246 4.785,-7.488 7.191,-18.336 7.191,-32.524 z m -46.535,0.02 c 0,-12.379 1.449,-21.399 4.371,-27.063 2.922,-5.64 7.551,-8.461 13.93,-8.461 6.437,0 11.105,2.86 14.004,8.582 2.882,5.743 4.332,14.704 4.332,26.942 0,12.219 -1.45,21.18 -4.332,26.883 -2.899,5.679 -7.567,8.523 -14.004,8.523 -6.379,0 -11.008,-2.801 -13.93,-8.426 -2.922,-5.601 -4.371,-14.601 -4.371,-26.98 z m 94.078,-42.68 h -9.418 v 60.66 c 0,5.047 0.156,9.817 0.457,14.305 -0.816,-0.812 -1.726,-1.668 -2.742,-2.562 -0.992,-0.895 -5.621,-4.672 -13.848,-11.368 l -5.125,6.661 22.531,17.421 h 8.145 z m 60.559,86.309 c 7.75,0 13.91,-1.805 18.457,-5.403 4.531,-3.617 6.816,-8.601 6.816,-14.96 0,-4.192 -1.312,-8.008 -3.914,-11.465 -2.605,-3.457 -6.758,-6.598 -12.457,-9.438 6.914,-3.297 11.82,-6.754 14.738,-10.39 2.906,-3.633 4.352,-7.829 4.352,-12.598 0,-7.074 -2.461,-12.715 -7.387,-16.926 -4.93,-4.211 -11.684,-6.316 -20.266,-6.316 -9.082,0 -16.078,1.984 -20.964,5.957 -4.887,3.996 -7.329,9.636 -7.329,16.929 0,9.754 5.938,17.344 17.821,22.77 -5.367,3.039 -9.199,6.297 -11.547,9.812 -2.324,3.5 -3.473,7.434 -3.473,11.786 0,6.16 2.266,11.086 6.832,14.742 4.551,3.672 10.672,5.5 18.321,5.5 z m -18.418,-64.828 c 0,-4.668 1.629,-8.285 4.867,-10.891 3.238,-2.602 7.789,-3.914 13.648,-3.914 5.805,0 10.293,1.352 13.532,4.074 3.218,2.723 4.828,6.457 4.828,11.188 0,3.773 -1.512,7.133 -4.547,10.05 -3.02,2.942 -8.309,5.786 -15.836,8.547 -5.781,-2.484 -9.977,-5.226 -12.578,-8.246 -2.602,-3.019 -3.914,-6.617 -3.914,-10.808 z m 18.297,56.961 c -4.868,0 -8.661,-1.172 -11.422,-3.496 -2.762,-2.325 -4.133,-5.426 -4.133,-9.297 0,-3.578 1.152,-6.637 3.437,-9.2 2.285,-2.562 6.516,-5.125 12.696,-7.687 5.562,2.324 9.476,4.824 11.8,7.508 2.305,2.683 3.461,5.801 3.461,9.379 0,3.914 -1.414,7.031 -4.214,9.336 -2.825,2.304 -6.696,3.457 -11.625,3.457 z m 94.012,12.16 h 8.21 V 593.895 h -8.21 z m 127.62,-67.989 c 0,-7.492 -2.72,-13.332 -8.14,-17.527 -5.45,-4.187 -12.82,-6.273 -22.14,-6.273 -10.09,0 -17.86,1.308 -23.28,3.914 v 9.554 c 3.49,-1.472 7.29,-2.64 11.4,-3.5 4.11,-0.851 8.19,-1.269 12.24,-1.269 6.6,0 11.56,1.254 14.9,3.754 3.34,2.488 5.01,5.961 5.01,10.433 0,2.942 -0.6,5.364 -1.77,7.231 -1.19,1.891 -3.18,3.617 -5.94,5.226 -2.78,1.59 -7.01,3.399 -12.68,5.407 -7.9,2.84 -13.57,6.195 -16.97,10.07 -3.39,3.875 -5.1,8.941 -5.1,15.199 0,6.559 2.46,11.785 7.39,15.656 4.95,3.875 11.46,5.821 19.57,5.821 8.46,0 16.25,-1.547 23.35,-4.649 l -3.08,-8.601 c -7.04,2.961 -13.87,4.429 -20.51,4.429 -5.22,0 -9.34,-1.128 -12.28,-3.378 -2.96,-2.266 -4.43,-5.383 -4.43,-9.395 0,-2.961 0.56,-5.363 1.63,-7.254 1.1,-1.887 2.92,-3.617 5.51,-5.183 2.58,-1.571 6.53,-3.301 11.86,-5.207 8.92,-3.176 15.05,-6.598 18.41,-10.254 3.36,-3.633 5.05,-8.383 5.05,-14.204 z m 70.89,-22.613 -10.59,27.063 h -34.13 l -10.47,-27.063 H 1172 l 33.66,85.477 h 8.32 l 33.48,-85.477 z m -13.67,36.004 -9.91,26.363 c -1.27,3.34 -2.6,7.434 -3.95,12.282 -0.86,-3.715 -2.07,-7.809 -3.68,-12.282 l -10.02,-26.363 z m -14.2,55.91 c -5.45,0 -9.68,1.328 -12.7,3.996 -3.04,2.661 -4.73,6.532 -5.07,11.621 h 6.04 c 0.24,-1.91 0.76,-3.398 1.55,-4.492 0.8,-1.093 1.91,-1.886 3.32,-2.383 1.43,-0.515 3.78,-0.777 7.08,-0.777 3.93,0 6.81,0.637 8.68,1.867 1.87,1.254 2.98,3.184 3.38,5.785 h 6.06 c -0.4,-4.89 -2.21,-8.722 -5.45,-11.484 -3.24,-2.762 -7.55,-4.133 -12.89,-4.133 z m 59.7,-56.504 v -35.41 h -9.89 v 85.117 h 23.32 c 10.46,0 18.16,-2.007 23.13,-6 4.99,-3.992 7.49,-10.011 7.49,-18.039 0,-11.265 -5.7,-18.875 -17.11,-22.828 l 23.11,-38.25 h -11.7 l -20.6,35.41 z m 0,8.461 h 13.55 c 7,0 12.1,1.391 15.36,4.176 3.26,2.758 4.89,6.93 4.89,12.473 0,5.625 -1.65,9.679 -4.97,12.16 -3.32,2.484 -8.64,3.734 -15.97,3.734 h -12.86 z m 63.8,41.246 h 24.04 c 11.29,0 19.47,-1.687 24.5,-5.066 5.05,-3.375 7.57,-8.723 7.57,-16.012 0,-5.047 -1.39,-9.218 -4.22,-12.5 -2.82,-3.273 -6.91,-5.402 -12.31,-6.375 v -0.578 c 12.94,-2.203 19.39,-9 19.39,-20.367 0,-7.606 -2.58,-13.547 -7.71,-17.82 -5.14,-4.27 -12.34,-6.399 -21.58,-6.399 h -29.68 z m 9.89,-36.476 h 16.3 c 6.99,0 12.02,1.09 15.08,3.297 3.08,2.187 4.6,5.883 4.6,11.086 0,4.769 -1.71,8.226 -5.12,10.332 -3.41,2.125 -8.84,3.179 -16.29,3.179 h -14.57 z m 0,-8.344 v -31.832 h 17.77 c 6.85,0 12.04,1.332 15.49,3.996 3.48,2.641 5.23,6.813 5.23,12.477 0,5.265 -1.79,9.16 -5.33,11.64 -3.55,2.485 -8.96,3.719 -16.21,3.719 z m 118.48,-40.297 -10.59,27.063 h -34.13 l -10.47,-27.063 H 1396 l 33.66,85.477 h 8.32 l 33.48,-85.477 z m -13.67,36.004 -9.91,26.363 c -1.27,3.34 -2.61,7.434 -3.96,12.282 -0.85,-3.715 -2.06,-7.809 -3.67,-12.282 l -10.02,-26.363 z m -14.2,55.91 c -5.45,0 -9.68,1.328 -12.7,3.996 -3.04,2.661 -4.73,6.532 -5.07,11.621 h 6.04 c 0.24,-1.91 0.76,-3.398 1.55,-4.492 0.8,-1.093 1.91,-1.886 3.32,-2.383 1.43,-0.515 3.77,-0.777 7.07,-0.777 3.93,0 6.82,0.637 8.69,1.867 1.87,1.254 2.97,3.184 3.37,5.785 h 6.06 c -0.39,-4.89 -2.2,-8.722 -5.44,-11.484 -3.24,-2.762 -7.55,-4.133 -12.89,-4.133 z m 67.67,-91.914 h -9.9 v 76.297 h -26.94 v 8.82 h 63.76 v -8.82 h -26.92 z m 111.26,42.66 c 0,-13.629 -3.46,-24.339 -10.33,-32.148 -6.9,-7.805 -16.47,-11.699 -28.75,-11.699 -12.54,0 -22.21,3.832 -29.01,11.5 -6.82,7.672 -10.23,18.48 -10.23,32.445 0,13.871 3.41,24.602 10.25,32.227 6.84,7.628 16.53,11.445 29.11,11.445 12.24,0 21.77,-3.875 28.65,-11.641 6.87,-7.769 10.31,-18.48 10.31,-32.129 z m -67.83,0.02 c 0,-11.524 2.44,-20.266 7.35,-26.227 4.92,-5.961 12.06,-8.941 21.4,-8.941 9.44,0 16.57,2.961 21.38,8.902 4.81,5.942 7.21,14.703 7.21,26.266 0,11.445 -2.39,20.125 -7.19,26.047 -4.79,5.922 -11.89,8.883 -21.28,8.883 -9.44,0 -16.6,-2.981 -21.52,-8.942 -4.91,-5.961 -7.35,-14.625 -7.35,-25.988 z m 96.68,-7.27 v -35.41 h -9.89 v 85.117 h 23.32 c 10.45,0 18.16,-2.007 23.13,-6 4.98,-3.992 7.49,-10.011 7.49,-18.039 0,-11.265 -5.71,-18.875 -17.11,-22.828 l 23.11,-38.25 h -11.71 l -20.6,35.41 z m 0,8.461 h 13.55 c 6.99,0 12.1,1.391 15.36,4.176 3.26,2.758 4.88,6.93 4.88,12.473 0,5.625 -1.64,9.679 -4.96,12.16 -3.32,2.484 -8.65,3.734 -15.98,3.734 h -12.85 z m 63.8,-43.871 v 85.117 h 9.89 v -85.117 z m 70.91,0 -28.89,75.461 h -0.46 c 0.54,-5.976 0.82,-13.094 0.82,-21.316 v -54.145 h -9.14 v 85.117 h 14.9 l 26.96,-70.214 h 0.46 l 27.2,70.214 h 14.78 v -85.117 h -9.89 v 54.84 c 0,6.297 0.27,13.133 0.81,20.504 h -0.46 l -29.13,-75.344 z m 100.93,0 v 85.117 h 9.9 v -85.117 z m -15.06,93.242 c 4.94,5.289 8.38,9.164 10.37,11.649 1.98,2.48 3.42,4.508 4.31,6.097 h 9.66 c 0.85,-1.628 2.34,-3.734 4.47,-6.32 2.1,-2.562 5.6,-6.379 10.45,-11.426 v -1.328 h -6.94 c -3.41,2.125 -7.7,5.742 -12.87,10.809 -5.27,-5.188 -9.52,-8.801 -12.76,-10.809 h -6.69 z m 85.97,-93.242 -28.89,75.461 h -0.46 c 0.54,-5.976 0.82,-13.094 0.82,-21.316 V 622.742 H 1910 v 85.117 h 14.9 l 26.96,-70.214 h 0.46 l 27.2,70.214 h 14.78 v -85.117 h -9.89 v 54.84 c 0,6.297 0.28,13.133 0.81,20.504 h -0.46 l -29.12,-75.344 z m 123.9,60.324 c 0,-8.605 -2.94,-15.242 -8.8,-19.871 -5.88,-4.629 -14.29,-6.953 -25.23,-6.953 h -10.02 v -33.5 h -9.89 v 85.117 h 22.05 c 21.26,0 31.89,-8.261 31.89,-24.793 z m -44.05,-18.359 h 8.9 c 8.76,0 15.12,1.41 19.04,4.254 3.91,2.82 5.88,7.367 5.88,13.609 0,5.621 -1.85,9.813 -5.53,12.575 -3.69,2.761 -9.43,4.132 -17.24,4.132 h -11.05 z m 71.77,-6.555 v -35.41 h -9.9 v 85.117 h 23.33 c 10.45,0 18.16,-2.007 23.12,-6 4.99,-3.992 7.5,-10.011 7.5,-18.039 0,-11.265 -5.71,-18.875 -17.11,-22.828 l 23.11,-38.25 h -11.71 l -20.6,35.41 z m 0,8.461 h 13.55 c 6.99,0 12.1,1.391 15.36,4.176 3.25,2.758 4.88,6.93 4.88,12.473 0,5.625 -1.65,9.679 -4.96,12.16 -3.32,2.484 -8.65,3.734 -15.98,3.734 h -12.85 z m 111.22,-43.871 h -47.42 v 85.117 h 47.42 v -8.82 h -37.53 v -27.418 h 35.27 v -8.703 h -35.27 v -31.352 h 37.53 z m 83.13,85.117 v -55.093 c 0,-9.696 -2.92,-17.325 -8.78,-22.887 -5.86,-5.547 -13.91,-8.324 -24.16,-8.324 -10.25,0 -18.18,2.797 -23.79,8.383 -5.6,5.601 -8.4,13.273 -8.4,23.066 v 54.855 h 9.9 v -55.531 c 0,-7.113 1.95,-12.558 5.82,-16.371 3.87,-3.793 9.57,-5.703 17.1,-5.703 7.19,0 12.72,1.91 16.6,5.742 3.87,3.817 5.82,9.301 5.82,16.43 v 55.433 z m 89.01,-85.117 h -11.28 l -46.52,71.43 h -0.47 c 0.61,-8.387 0.93,-16.055 0.93,-23.047 v -48.383 h -9.14 v 85.117 h 11.17 l 46.41,-71.148 h 0.46 c -0.08,1.055 -0.24,4.414 -0.52,10.113 -0.28,5.684 -0.38,9.739 -0.3,12.199 v 48.836 h 9.26 z m 76.89,0 -10.59,27.063 h -34.13 l -10.47,-27.063 h -10.01 l 33.65,85.477 h 8.33 l 33.47,-85.477 z m -13.67,36.004 -9.91,26.363 c -1.27,3.34 -2.6,7.434 -3.96,12.282 -0.85,-3.715 -2.06,-7.809 -3.67,-12.282 l -10.01,-26.363 z m -14.2,55.91 c -5.45,0 -9.68,1.328 -12.7,3.996 -3.04,2.661 -4.73,6.532 -5.06,11.621 h 6.04 c 0.23,-1.91 0.75,-3.398 1.54,-4.492 0.8,-1.093 1.91,-1.886 3.32,-2.383 1.43,-0.515 3.78,-0.777 7.08,-0.777 3.93,0 6.81,0.637 8.68,1.867 1.87,1.254 2.98,3.184 3.38,5.785 h 6.05 c -0.39,-4.89 -2.2,-8.722 -5.44,-11.484 -3.24,-2.762 -7.55,-4.133 -12.89,-4.133" /></g></g></svg>